<svg width="77" height="72" viewBox="0 0 77 72" fill="none" xmlns="http://www.w3.org/2000/svg">
<g clip-path="url(#clip0_314_6533)">
<path d="M41.1486 70.8929L35.5709 71.9371C33.5812 72.3092 31.9688 70.9987 31.9688 69.009V5.38357C31.9688 3.39387 33.5812 1.47942 35.5709 1.1073L41.1486 0.0631478C43.1383 -0.308966 44.7508 1.00157 44.7508 2.99126V66.6156C44.7508 68.6053 43.1383 70.5198 41.1486 70.8919V70.8929Z" fill="#A35BFB"/>
<path d="M39.4412 12.4722C39.4412 12.6176 39.0854 12.7559 38.3717 12.8891C37.6579 13.0243 37.3011 13.0182 37.3011 12.8738V7.4497L36.0048 7.69168C35.8817 7.71608 35.7953 7.56561 35.7445 7.24331C35.7221 7.08877 35.7109 6.93017 35.7109 6.76343C35.7109 6.59669 35.7221 6.43402 35.7445 6.27033C35.7953 5.93075 35.8807 5.74876 36.0048 5.72436L40.705 4.84592C40.828 4.82355 40.9144 4.97403 40.9653 5.29429C40.9876 5.44984 40.9988 5.60947 40.9988 5.77519C40.9988 5.94091 40.9876 6.1046 40.9653 6.26728C40.9144 6.60889 40.829 6.79088 40.705 6.81325L39.4412 7.04912V12.4732V12.4722Z" fill="white"/>
<path d="M37.7759 23.6132C37.7759 23.7271 37.4332 23.8491 36.749 23.9772C36.0576 24.1063 35.7109 24.1175 35.7109 24.0108V16.964C35.7109 16.7118 35.8451 16.5593 36.1105 16.5105L38.1764 16.1242C40.0706 15.7704 41.0181 16.3306 41.0181 17.8078C41.0181 18.2542 40.9317 18.6781 40.7579 19.0716C40.585 19.4691 40.34 19.8047 40.0238 20.0802L41.3852 22.0953C41.3272 22.2793 41.1401 22.5121 40.8219 22.7958C40.3908 23.1862 40.033 23.4068 39.7523 23.4587C39.4717 23.5126 39.2623 23.4495 39.126 23.2747L38.1104 21.0969L37.7749 21.1599V23.6142L37.7759 23.6132ZM37.7759 18.1118V19.7325L37.8298 19.7223C38.515 19.5942 38.8576 19.2465 38.8576 18.6751C38.8576 18.4158 38.7905 18.2379 38.6584 18.1362C38.5242 18.0346 38.3066 18.0122 38.0046 18.0702L37.7769 18.1118H37.7759Z" fill="white"/>
<path d="M40.442 34.0935C39.8147 34.2104 39.4762 34.1738 39.4264 33.9816L39.0695 32.6548L37.3513 32.9751L37.0371 34.3751C36.9944 34.6059 36.6487 34.7828 36.0001 34.9038C35.6544 34.9689 35.3992 34.9963 35.2325 34.9882C35.0667 34.979 34.9844 34.9658 34.9844 34.9445L36.8978 27.2694C36.8978 27.2114 37.3909 27.0894 38.3781 26.9054C39.3654 26.7203 39.8585 26.6583 39.8585 26.7163L41.7292 33.6929C41.7292 33.7437 41.5625 33.8118 41.232 33.9044C40.9016 33.9938 40.6383 34.0569 40.4431 34.0935H40.442ZM37.6217 31.5537L38.7564 31.3402L38.2704 29.194L38.2043 29.2062L37.6217 31.5537Z" fill="white"/>
<path d="M34.9062 38.4918C34.9062 38.4573 35.0628 38.3922 35.377 38.3007C35.6901 38.2092 35.9474 38.1461 36.1497 38.1085C36.9498 37.9581 37.3667 37.9855 37.4033 38.1868L38.3325 42.7671L39.2079 37.8483C39.2516 37.6317 39.698 37.4426 40.549 37.285C40.7574 37.2443 41.0207 37.2098 41.3379 37.1782C41.6551 37.1488 41.8127 37.1518 41.8127 37.1874L39.8993 44.6998C39.8708 44.8208 39.6583 44.9377 39.2618 45.0465C38.6487 45.2265 38.0926 45.3424 37.5924 45.3983C37.0922 45.4512 36.8268 45.4319 36.7983 45.3332L34.9062 38.4908V38.4918Z" fill="white"/>
<path d="M39.7481 51.2568C39.8854 51.2303 39.9535 51.4723 39.9535 51.9766C39.9535 52.1271 39.9382 52.3091 39.9047 52.5195C39.8732 52.733 39.8132 52.8449 39.7268 52.8622L38.3532 53.1173V54.1991L40.3429 53.828C40.4649 53.8057 40.5483 53.947 40.591 54.255C40.6123 54.3903 40.6235 54.5336 40.6235 54.6871C40.6235 54.8407 40.6011 55.046 40.5574 55.2982C40.5147 55.5524 40.4425 55.6886 40.3419 55.7079L36.6461 56.3993C36.3716 56.4501 36.2344 56.3647 36.2344 56.142V49.1929C36.2344 49.0058 36.3167 48.895 36.4825 48.8635L40.352 48.1385C40.5035 48.1101 40.5788 48.4151 40.5788 49.0526C40.5788 49.69 40.5035 50.0235 40.352 50.054L38.3522 50.4271V51.5181L39.7461 51.2568H39.7481Z" fill="white"/>
<path d="M36.4453 66.6081V59.8847C36.4453 59.7342 36.8113 59.5888 37.5423 59.4526C38.2744 59.3163 38.6394 59.3235 38.6394 59.4739V64.771L40.3037 64.4598C40.4328 64.4354 40.5233 64.588 40.5742 64.9163C40.5965 65.079 40.6057 65.2458 40.6057 65.4186C40.6057 65.5914 40.5965 65.7704 40.5742 65.9544C40.5152 66.3113 40.4227 66.5004 40.2935 66.5248L36.9649 67.148C36.8052 67.1775 36.6792 67.1378 36.5856 67.025C36.4921 66.9132 36.4453 66.7729 36.4453 66.6081Z" fill="white"/>
<path d="M8.323 25.3648L0.722115 35.114C-0.240705 36.3482 -0.240705 37.9628 0.722115 38.8361L8.323 45.7406C8.84559 46.2154 9.58575 46.4035 10.3625 46.2591L25.8296 43.3645C27.3547 43.0788 28.59 41.6117 28.59 40.0867V23.433C28.59 21.908 27.3537 20.9035 25.8296 21.1892L10.3625 24.0837C9.58677 24.2291 8.8466 24.6938 8.323 25.3648Z" fill="#F1FD22"/>
<path d="M66.3603 25.7428L50.8932 28.6374C49.3681 28.9231 48.1328 30.3902 48.1328 31.9152V48.5689C48.1328 50.0939 49.3691 51.0984 50.8932 50.8127L66.3603 47.9182C67.136 47.7728 67.8762 47.3081 68.3998 46.6371L76.0007 36.8879C76.9625 35.6537 76.9625 34.0401 76.0007 33.1658L68.3998 26.2613C67.8772 25.7865 67.1371 25.5984 66.3603 25.7428Z" fill="#01EEE1"/>
<path d="M55.5092 45.1631C55.5092 45.3624 54.9175 45.5729 53.733 45.7955C52.5353 46.0192 51.9375 46.0385 51.9375 45.8515V33.6622C51.9375 33.225 52.1683 32.9637 52.6299 32.8783L56.2005 32.2093C59.4794 31.5962 61.1173 32.5662 61.1173 35.1222C61.1173 35.8959 60.9679 36.6238 60.669 37.3081C60.3701 37.9944 59.9451 38.5749 59.3971 39.0517L61.7528 42.537C61.6531 42.8552 61.3288 43.2599 60.7808 43.7479C60.0335 44.424 59.4154 44.8073 58.9294 44.8978C58.4424 44.9893 58.0814 44.8825 57.8446 44.5775L56.0867 40.8127L55.5061 40.9214V45.1642L55.5092 45.1631ZM55.5092 35.6468V38.4529L55.6037 38.4356C56.7872 38.2129 57.3789 37.609 57.3789 36.6259C57.3789 36.1765 57.264 35.8644 57.0332 35.6895C56.8034 35.5166 56.4263 35.476 55.9026 35.5736L55.5092 35.6468Z" fill="black"/>
<path d="M66.2972 33.0128C66.2972 33.1002 65.7279 33.2507 64.5861 33.4642C63.4454 33.6777 62.875 33.7458 62.875 33.6726V30.9784C62.875 30.8543 63.4454 30.6855 64.5861 30.472C65.7269 30.2585 66.2972 30.1884 66.2972 30.2636V33.0118V33.0128ZM66.2972 43.2968C66.2972 43.3964 65.7279 43.5519 64.5861 43.7655C63.4454 43.979 62.875 44.042 62.875 43.9566V34.7757C62.875 34.6883 63.4454 34.5378 64.5861 34.3243C65.7269 34.1108 66.2972 34.0407 66.2972 34.1159V43.2968Z" fill="black"/>
<path d="M7.32812 41.3886V30.1703C7.32812 29.8592 7.40539 29.5979 7.56095 29.3874C7.71651 29.177 7.91985 29.0499 8.16894 29.0021L11.2912 28.4175C13.2738 28.0464 14.7785 28.265 15.8074 29.0682C16.8353 29.8734 17.3498 31.3476 17.3498 33.4919C17.3498 38.0792 15.3926 40.7389 11.4793 41.47L8.28179 42.0688C7.64534 42.1878 7.32914 41.96 7.32914 41.3876L7.32812 41.3886ZM10.9181 32.04V37.6309C10.9181 37.8932 10.9354 38.0548 10.973 38.1158C11.0106 38.1769 11.1225 38.1911 11.3095 38.1565C11.9948 38.0284 12.5154 37.6756 12.8712 37.0971C13.226 36.5196 13.4029 35.6371 13.4029 34.4466C13.4029 33.256 13.2189 32.5138 12.8519 32.22C12.4838 31.9292 11.9013 31.856 11.1042 32.0044L10.9181 32.039V32.04Z" fill="black"/>
<path d="M19.6251 33.139C19.2763 32.5788 19.1015 32.105 19.1015 31.7126C19.1015 31.3201 19.2072 31.0476 19.4187 30.8951C20.1294 30.4508 21.1044 30.1123 22.3458 29.8795C23.5851 29.6487 24.4615 29.7747 24.9719 30.2597C25.4833 30.7426 25.7385 31.5519 25.7385 32.6856V35.6401L26.374 35.5211C26.5865 35.4805 26.7512 35.575 26.8691 35.8028C26.988 36.0305 27.048 36.3609 27.048 36.7991C27.048 37.2373 26.9382 37.6847 26.7196 38.1504C26.5021 38.614 26.2062 38.8824 25.8321 38.9525C25.159 39.0766 24.6161 38.9983 24.2053 38.7126C24.0193 38.5987 23.8749 38.4452 23.7753 38.25C23.2018 39.0817 22.3112 39.6103 21.1013 39.836C20.1914 40.0058 19.4248 39.8259 18.8015 39.2931C18.1783 38.7624 17.8672 38.0538 17.8672 37.1702C17.8672 35.1379 19.0832 33.8934 21.5121 33.4389L22.541 33.2468V33.0617C22.541 32.7364 22.4871 32.5381 22.3814 32.4649C22.2756 32.3917 22.0296 32.3917 21.6432 32.4629C21.1684 32.5524 20.4954 32.7781 19.623 33.14L19.6251 33.139ZM21.1206 36.2989C21.1206 36.5734 21.1959 36.7676 21.3453 36.8835C21.4948 36.9994 21.6839 37.036 21.9147 36.9923C22.1455 36.9506 22.3549 36.8154 22.541 36.5928V35.1541L22.0164 35.2517C21.4185 35.3636 21.1196 35.7123 21.1196 36.2989H21.1206Z" fill="black"/>
</g>
<defs>
<clipPath id="clip0_314_6533">
<rect width="76.7236" height="72" fill="white"/>
</clipPath>
</defs>
</svg>
