<svg width="21" height="20" viewBox="0 0 21 20" fill="none" xmlns="http://www.w3.org/2000/svg">
<path d="M17.5977 0H3.84766C2.12177 0 0.722656 1.39911 0.722656 3.125V16.875C0.722656 18.6009 2.12177 20 3.84766 20H17.5977C19.3235 20 20.7227 18.6009 20.7227 16.875V3.125C20.7227 1.39911 19.3235 0 17.5977 0Z" fill="#171717"/>
<path d="M5.7851 9.81768C8.46945 8.64816 10.2594 7.87713 11.1551 7.50461C13.7123 6.44099 14.2436 6.25623 14.5899 6.25006C14.6661 6.24878 14.8364 6.26766 14.9468 6.35718C15.0399 6.43277 15.0655 6.53488 15.0778 6.60655C15.0901 6.67821 15.1054 6.84147 15.0932 6.96904C14.9546 8.42506 14.355 11.9584 14.05 13.5892C13.9209 14.2792 13.6667 14.5106 13.4207 14.5332C12.886 14.5825 12.4799 14.1799 11.962 13.8404C11.1516 13.3091 10.6937 12.9784 9.90705 12.46C8.99792 11.8609 9.58727 11.5316 10.1054 10.9935C10.241 10.8527 12.597 8.70966 12.6426 8.51526C12.6483 8.49095 12.6536 8.40032 12.5998 8.35246C12.5459 8.30461 12.4665 8.32097 12.4091 8.33399C12.3278 8.35243 11.0332 9.20817 8.52509 10.9012C8.1576 11.1535 7.82474 11.2765 7.52651 11.27C7.19773 11.2629 6.56529 11.0841 6.09514 10.9313C5.51849 10.7439 5.06017 10.6448 5.10008 10.3264C5.12087 10.1606 5.34921 9.99103 5.7851 9.81768Z" fill="white"/>
</svg>
