<svg width="21" height="20" viewBox="0 0 21 20" fill="none" xmlns="http://www.w3.org/2000/svg">
<path d="M0.722656 9.6C0.722656 5.07333 0.722656 2.81333 2.12266 1.4C3.54266 0 5.80266 0 10.3227 0H11.1227C15.6493 0 17.9093 0 19.3227 1.4C20.7227 2.82 20.7227 5.08 20.7227 9.6V10.4C20.7227 14.9267 20.7227 17.1867 19.3227 18.6C17.9027 20 15.6427 20 11.1227 20H10.3227C5.79599 20 3.53599 20 2.12266 18.6C0.722656 17.18 0.722656 14.92 0.722656 10.4V9.6Z" fill="#171717"/>
<path d="M11.3643 14.4067C6.80432 14.4067 4.20432 11.2867 4.09766 6.08674H6.39099C6.46432 9.90008 8.14432 11.5134 9.47766 11.8467V6.08674H11.631V9.37341C12.9443 9.23341 14.331 7.73341 14.7977 6.08008H16.9443C16.7693 6.93592 16.4196 7.74648 15.9172 8.4611C15.4148 9.17572 14.7704 9.77906 14.0243 10.2334C14.8569 10.6478 15.5923 11.234 16.1818 11.9534C16.7713 12.6728 17.2016 13.5089 17.4443 14.4067H15.0777C14.571 12.8267 13.3043 11.6001 11.631 11.4334V14.4067H11.371H11.3643Z" fill="white"/>
</svg>
