<svg width="21" height="20" viewBox="0 0 21 20" fill="none" xmlns="http://www.w3.org/2000/svg">
<path fill-rule="evenodd" clip-rule="evenodd" d="M10.7227 18.25C9.22266 18.25 7.72266 17.875 6.47266 17.125L6.22265 17L3.09765 17.875L3.97266 14.875L3.72265 14.5C2.84765 13.125 2.47265 11.625 2.47265 10.125C2.47265 5.625 6.22266 1.875 10.7227 1.875C12.9727 1.875 14.9727 2.75 16.5977 4.25C18.2227 5.875 18.9727 7.875 18.9727 10.125C18.9727 14.5 15.3477 18.25 10.7227 18.25ZM13.4727 11.25C13.7227 11.25 14.9727 11.875 15.2227 12C15.4727 12.125 15.7227 12.125 15.8477 12.75C15.9727 12.75 15.9727 13.25 15.7227 13.875C15.5977 14.375 14.5977 15 14.0977 15C13.5977 15 13.2226 15.25 11.0976 14.375C8.59764 13.375 6.97265 10.75 6.84765 10.625C6.72265 10.375 5.84766 9.25 5.84766 8C5.84766 6.75 6.47264 6.125 6.72264 5.875C6.97264 5.625 7.22264 5.625 7.34764 5.625H7.84767C7.97267 5.625 8.22266 5.625 8.34766 6C8.59766 6.5 9.09767 7.75 9.09767 7.875C9.09767 8 9.22267 8.125 9.09767 8.25C8.97267 8.375 8.97266 8.5 8.84766 8.625L8.47267 9C8.34767 9.125 8.22266 9.25 8.34766 9.5C8.47266 9.75 8.97267 10.625 9.72267 11.25C10.7227 12.125 11.4726 12.375 11.7226 12.5C11.9726 12.5 12.0977 12.5 12.2227 12.375C12.3477 12.125 12.8476 11.625 12.9726 11.375C13.0976 11.125 13.2227 11.125 13.4727 11.25Z" fill="#111927"/>
<path fill-rule="evenodd" clip-rule="evenodd" d="M10.7227 0C13.3477 0 15.8477 1 17.7227 2.875C19.5977 4.75 20.7227 7.25 20.7227 9.875C20.7227 15.375 16.2227 19.875 10.7227 19.875C9.09766 19.875 7.47267 19.375 5.97267 18.625L0.722656 20L2.09766 15C1.22266 13.5 0.722656 11.75 0.722656 10C0.722656 4.5 5.22266 0 10.7227 0ZM6.47266 17.125C7.72266 17.875 9.22266 18.25 10.7227 18.25C15.3477 18.25 18.9727 14.5 18.9727 10.125C18.9727 7.875 18.2227 5.875 16.5977 4.25C14.9727 2.75 12.9727 1.875 10.7227 1.875C6.22266 1.875 2.47265 5.625 2.47265 10.125C2.47265 11.625 2.84765 13.125 3.72265 14.5L3.97266 14.875L3.09765 17.875L6.22265 17L6.47266 17.125Z" fill="#111927"/>
</svg>
